<?xml version="1.0" standalone="no"?>
<!DOCTYPE svg PUBLIC "-//W3C//DTD SVG 20010904//EN"
 "http://www.w3.org/TR/2001/REC-SVG-20010904/DTD/svg10.dtd">
<svg version="1.0" xmlns="http://www.w3.org/2000/svg"
 width="4168.000000pt" height="1963.000000pt" viewBox="0 0 4168.000000 1963.000000"
 preserveAspectRatio="xMidYMid meet">

<g transform="translate(0.000000,1963.000000) scale(0.100000,-0.100000)"
fill="#000000" stroke="none">
<path d="M29685 19469 c-971 -55 -1822 -396 -2380 -954 -190 -189 -331 -381
-443 -602 -152 -299 -222 -591 -222 -921 0 -757 362 -1499 1164 -2382 52 -57
94 -105 93 -106 -1 -1 -99 -59 -217 -129 -1146 -683 -1686 -1123 -2055 -1675
-97 -145 -232 -418 -284 -575 -185 -563 -171 -1239 37 -1821 370 -1031 1337
-1813 2676 -2164 543 -142 1050 -204 1671 -203 565 0 985 51 1504 184 799 204
1583 606 2181 1118 l94 81 94 -92 c266 -262 425 -495 408 -597 -7 -45 -49 -87
-105 -106 -52 -17 -172 -34 -243 -35 l-48 0 0 -140 0 -140 1355 0 1355 0 0
140 0 140 -52 0 c-76 0 -225 17 -316 36 -430 87 -986 437 -1786 1124 l-177
152 23 28 c317 388 456 595 616 915 112 225 182 399 247 616 165 550 185 1122
56 1622 -245 949 -1064 1681 -2336 2088 -82 27 -145 48 -139 49 6 0 96 -13
200 -30 615 -97 1215 -140 1549 -111 424 37 790 155 1085 352 115 76 316 273
383 375 105 159 172 329 202 513 27 162 17 417 -23 571 -79 309 -242 556 -511
782 -352 294 -893 529 -1440 627 -178 32 -162 40 -189 -90 -13 -61 -22 -112
-20 -113 2 -2 55 -13 118 -25 270 -52 561 -135 761 -216 491 -200 772 -461
850 -790 30 -128 24 -314 -15 -432 -87 -269 -335 -454 -771 -577 -387 -110
-653 -145 -2320 -306 -772 -74 -1098 -107 -1155 -115 -27 -3 -11 8 70 51 168
89 395 228 542 332 574 408 903 846 984 1314 24 139 15 416 -19 558 -134 565
-552 1046 -1172 1350 -536 263 -1148 370 -1880 329z m570 -390 c749 -152 1179
-838 1125 -1794 -61 -1062 -625 -1785 -1418 -1819 -51 -2 -94 -5 -96 -7 -2 -2
-6 -68 -10 -146 l-7 -143 218 0 c294 0 454 -19 723 -86 807 -199 1537 -695
1969 -1339 247 -368 404 -782 471 -1237 70 -477 32 -1144 -99 -1742 -17 -76
-33 -141 -35 -144 -15 -14 -2326 2243 -2612 2550 -700 752 -1202 1457 -1572
2206 -330 667 -492 1250 -492 1772 0 552 117 1024 335 1355 114 172 314 353
488 442 148 74 365 134 553 152 136 13 339 4 459 -20z m-1900 -5032 c151 -153
888 -833 2352 -2172 l2133 -1949 -51 -94 c-450 -843 -1210 -1391 -2152 -1552
-411 -70 -875 -70 -1248 0 -1227 231 -2134 1212 -2379 2570 -53 294 -72 610
-59 946 23 596 133 1058 352 1487 134 264 301 490 527 718 123 124 284 269
299 269 3 0 105 -100 226 -223z"/>
<path d="M170 18051 l0 -108 53 -7 c28 -3 84 -6 122 -6 100 0 235 -18 344 -46
325 -82 500 -291 570 -682 41 -225 42 -356 39 -3057 -4 -2373 -5 -2599 -21
-2701 -59 -384 -175 -587 -404 -702 -124 -63 -302 -98 -550 -109 l-153 -6 0
-109 0 -108 2694 0 c1800 0 2721 -3 2773 -10 203 -27 263 -120 218 -334 -8
-38 -13 -72 -10 -74 2 -2 55 -19 117 -37 101 -29 114 -31 120 -16 7 15 772
2985 780 3025 3 17 -12 23 -111 48 -62 16 -114 27 -116 26 -1 -2 -14 -39 -30
-83 -337 -962 -597 -1460 -940 -1800 -266 -264 -550 -403 -942 -462 -166 -25
-896 -25 -1048 0 -380 61 -541 229 -611 637 -17 99 -19 260 -22 2775 -2 1822
0 2722 8 2832 41 635 225 886 705 968 67 12 298 29 463 35 1 0 2 50 2 110 l0
110 -2025 0 -2025 0 0 -109z"/>
<path d="M21905 17733 c-369 -1066 -1014 -1562 -2117 -1629 l-118 -7 0 -113 0
-114 410 0 409 0 4 -2127 c3 -2369 -1 -2209 72 -2499 146 -583 530 -920 1148
-1009 431 -62 881 -3 1222 160 289 138 568 391 814 738 76 107 241 376 241
393 0 7 -26 27 -57 45 -32 17 -72 40 -90 51 l-32 19 -69 -103 c-270 -402 -522
-623 -783 -689 -68 -18 -101 -21 -179 -16 -52 3 -116 13 -141 21 -269 85 -435
334 -479 721 -6 58 -10 826 -10 2193 l0 2102 805 0 805 0 0 120 0 120 -805 0
-805 0 0 880 0 880 -99 0 -98 0 -48 -137z"/>
<path d="M18541 16367 l-83 -10 5 -46 c12 -105 -36 -200 -111 -221 -86 -23
-149 -13 -542 88 -414 107 -684 139 -1055 129 -448 -14 -788 -80 -1130 -221
-373 -155 -681 -431 -845 -756 -226 -449 -222 -1080 10 -1505 119 -217 320
-427 571 -596 235 -158 442 -258 965 -470 189 -76 424 -174 522 -219 801 -362
1133 -724 1109 -1210 -12 -232 -89 -403 -254 -561 -80 -77 -131 -113 -231
-163 -275 -138 -699 -181 -1049 -105 -564 122 -1049 537 -1339 1144 -69 146
-128 302 -169 448 -25 89 -30 98 -49 94 -12 -3 -63 -11 -113 -18 -54 -7 -93
-17 -93 -23 -1 -11 183 -1919 185 -1923 0 -1 42 5 93 14 l92 17 0 32 c0 49 27
115 63 153 44 47 106 72 191 78 99 8 183 -12 441 -104 252 -90 412 -135 577
-162 752 -125 1643 46 2219 428 555 368 819 887 770 1513 -34 433 -177 765
-458 1058 -154 161 -348 310 -578 443 -135 78 -437 220 -705 332 -841 352
-1184 554 -1381 814 -103 137 -149 268 -149 432 0 355 247 647 635 748 247 65
606 43 875 -54 472 -170 879 -619 1226 -1354 41 -85 75 -157 76 -162 3 -7 225
43 232 53 7 8 -420 1878 -429 1876 -5 0 -48 -5 -94 -11z"/>
<path d="M10505 16299 c-903 -63 -1682 -388 -2220 -924 -553 -551 -845 -1319
-845 -2220 0 -1619 916 -2700 2465 -2909 471 -64 1052 -37 1526 70 455 102
888 290 1229 534 589 421 973 1024 1120 1760 111 555 86 1225 -66 1752 -52
181 -98 299 -189 483 -254 513 -626 883 -1140 1135 -379 186 -761 284 -1245
320 -152 11 -470 11 -635 -1z m279 -234 c257 -39 463 -143 651 -329 231 -229
400 -549 519 -981 205 -748 244 -1910 90 -2710 -127 -656 -369 -1125 -719
-1390 -78 -60 -260 -149 -355 -174 -166 -45 -339 -50 -520 -15 -489 92 -853
483 -1069 1148 -109 334 -174 709 -212 1216 -16 206 -16 827 -1 1015 62 753
210 1275 473 1671 84 125 257 306 358 374 236 158 502 218 785 175z"/>
<path d="M40206 9379 c-32 -55 -135 -168 -214 -235 -427 -365 -1207 -625
-1979 -661 l-143 -6 0 -114 0 -113 455 0 455 0 0 -1120 0 -1120 -52 21 c-363
145 -692 211 -1118 225 -920 31 -1785 -286 -2360 -865 -584 -587 -880 -1404
-880 -2426 0 -617 107 -1133 326 -1576 335 -675 898 -1089 1639 -1206 138 -21
525 -25 660 -5 350 51 617 150 905 336 256 165 538 434 789 753 36 46 70 83
76 83 8 0 14 -60 18 -202 10 -320 45 -563 108 -753 32 -96 79 -191 95 -189 5
1 569 147 1253 325 l1243 324 -6 90 c-4 50 -9 100 -12 111 l-6 21 -111 -28
c-180 -46 -305 -62 -441 -57 -106 3 -129 7 -181 31 -32 15 -74 39 -92 53 -75
57 -132 180 -170 364 -16 80 -17 337 -20 4028 l-3 3942 -108 0 -108 0 -18 -31z
m-2371 -3386 c190 -35 387 -118 558 -235 99 -68 280 -236 346 -322 l41 -53 0
-1845 0 -1846 -133 -134 c-359 -360 -627 -499 -1009 -524 -209 -13 -418 29
-613 126 -289 142 -513 383 -678 730 -192 402 -282 854 -294 1480 -24 1264
295 2133 912 2485 252 144 571 194 870 138z"/>
<path d="M11145 8557 c-55 -17 -101 -31 -103 -32 -1 -1 4 -31 13 -66 29 -124
13 -233 -41 -281 -39 -35 -113 -58 -211 -68 -59 -6 -1126 -10 -2700 -10
l-2603 0 0 -110 0 -110 119 0 c139 0 314 -21 421 -50 211 -59 364 -180 453
-360 53 -109 89 -234 114 -400 17 -107 18 -294 18 -2845 0 -2187 -3 -2748 -13
-2820 -42 -294 -120 -475 -257 -604 -151 -141 -351 -204 -697 -218 l-158 -6 0
-109 0 -108 2095 0 2095 0 0 110 0 110 -112 0 c-379 1 -663 60 -838 175 -179
117 -272 284 -332 597 -21 112 -22 125 -25 1466 l-4 1354 538 -5 c440 -3 556
-7 638 -20 424 -71 622 -225 719 -559 39 -134 57 -275 63 -490 l6 -198 103 0
104 0 0 1385 0 1385 -104 0 -103 0 -6 -177 c-21 -640 -228 -913 -769 -1014
-104 -20 -156 -22 -651 -26 l-538 -5 4 1344 c4 1432 2 1376 52 1568 53 207
180 348 372 415 149 52 233 60 683 60 419 0 488 -4 670 -41 425 -87 766 -334
1045 -759 158 -240 324 -582 461 -950 20 -55 37 -101 38 -102 2 -2 238 86 242
90 1 1 -150 567 -335 1257 -242 899 -342 1255 -352 1257 -8 0 -59 -13 -114
-30z"/>
<path d="M20946 6305 c-65 -104 -232 -259 -401 -372 -304 -204 -819 -394
-1280 -473 -159 -27 -380 -50 -482 -50 l-83 0 0 -110 0 -110 415 0 414 0 4
-1702 c4 -1862 1 -1765 62 -2058 50 -233 141 -461 256 -635 72 -109 252 -289
359 -358 275 -177 567 -259 980 -274 209 -7 331 5 516 52 358 90 748 304 1131
619 145 120 447 424 562 566 52 63 98 116 102 118 5 2 9 -98 9 -221 0 -495 48
-849 141 -1045 23 -47 35 -62 47 -58 9 3 573 145 1252 316 679 172 1237 313
1238 315 5 5 -18 218 -23 224 -3 2 -50 -6 -106 -18 -543 -115 -786 19 -863
479 -33 196 -36 420 -36 2633 l0 2207 -102 0 -103 -1 -43 -63 c-128 -191 -402
-396 -722 -542 -443 -202 -1066 -344 -1507 -344 l-93 0 0 -105 0 -105 460 0
460 0 0 -1679 0 -1679 -92 -87 c-304 -286 -704 -504 -1032 -562 -105 -18 -290
-20 -391 -3 -422 69 -694 374 -780 875 -31 180 -35 431 -35 2358 l0 1937 -102
0 -103 0 -29 -45z"/>
<path d="M28775 6294 c-96 -146 -313 -333 -525 -453 -426 -242 -1047 -406
-1617 -428 l-163 -6 0 -109 0 -108 450 0 451 0 -4 -1887 c-4 -2063 -1 -1980
-61 -2217 -67 -262 -202 -405 -438 -465 -89 -23 -238 -41 -338 -41 l-70 0 0
-110 0 -110 1720 0 1720 0 0 110 0 110 -72 0 c-104 0 -241 17 -328 41 -259 70
-382 238 -434 591 -31 211 -36 473 -36 1935 l0 1463 133 133 c151 152 242 228
398 333 468 312 1033 398 1416 213 277 -133 442 -398 510 -819 15 -93 17 -241
20 -1335 4 -1258 -2 -1585 -33 -1825 -52 -399 -173 -595 -421 -681 -72 -25
-226 -49 -315 -49 l-68 0 0 -110 0 -110 1700 0 1700 0 0 110 0 110 -75 0
c-104 0 -252 18 -343 41 -308 78 -424 267 -473 774 -8 82 -14 598 -19 1625 -6
1331 -9 1519 -24 1625 -72 517 -234 898 -491 1160 -280 285 -650 430 -1149
452 -662 28 -1369 -252 -1991 -789 -128 -111 -301 -288 -400 -410 l-70 -87 -3
690 -2 689 -109 0 -108 0 -38 -56z"/>
<path d="M15080 6253 c-1302 -69 -2309 -646 -2806 -1606 -172 -334 -272 -668
-326 -1097 -21 -164 -17 -769 5 -935 51 -376 137 -673 282 -970 126 -258 255
-443 450 -644 457 -471 1043 -734 1835 -823 173 -19 706 -16 898 5 872 98
1570 405 2082 917 443 443 707 1001 805 1701 22 157 31 625 16 811 -49 582
-203 1059 -476 1468 -467 701 -1234 1101 -2241 1170 -136 9 -388 11 -524 3z
m145 -233 c278 -32 499 -141 706 -349 471 -474 709 -1416 686 -2716 -8 -433
-36 -706 -106 -1045 -150 -717 -468 -1222 -895 -1420 -419 -195 -937 -96
-1280 245 -368 366 -589 984 -672 1885 -21 235 -30 872 -15 1106 49 759 203
1326 470 1729 275 417 663 615 1106 565z"/>
</g>
</svg>
