<?xml version="1.0" standalone="no"?>
<!DOCTYPE svg PUBLIC "-//W3C//DTD SVG 20010904//EN"
 "http://www.w3.org/TR/2001/REC-SVG-20010904/DTD/svg10.dtd">
<svg version="1.0" xmlns="http://www.w3.org/2000/svg"
 width="512.000000pt" height="512.000000pt" viewBox="0 0 512.000000 512.000000"
 preserveAspectRatio="xMidYMid meet">

<g transform="translate(0.000000,512.000000) scale(0.100000,-0.100000)"
fill="#000000" stroke="none">
<path d="M2365 4029 c-302 -32 -611 -149 -827 -315 l-56 -44 -636 0 -636 0 0
-1110 0 -1110 635 0 636 0 72 -54 c251 -187 576 -296 932 -312 399 -19 811
102 1097 322 l56 44 636 0 636 0 0 1110 0 1110 -636 0 -636 0 -56 44 c-315
242 -775 361 -1217 315z m-462 -830 c53 -14 112 -71 134 -127 22 -57 24 -163
4 -212 -41 -99 -113 -145 -215 -138 -86 5 -134 37 -172 115 -24 47 -28 70 -28
129 2 171 125 275 277 233z m627 -22 c44 -22 45 -25 48 -75 l3 -52 -40 0 c-39
0 -41 2 -41 30 0 36 -23 50 -85 50 -61 0 -85 -14 -85 -49 0 -37 22 -54 103
-81 115 -37 168 -104 146 -183 -18 -65 -74 -97 -168 -97 -64 0 -112 13 -154
43 -25 17 -28 24 -25 71 l3 51 35 0 c32 0 35 -3 40 -35 6 -41 36 -60 98 -60
70 0 106 56 63 99 -10 10 -43 27 -72 36 -120 39 -169 80 -169 142 0 92 82 148
200 137 30 -2 75 -15 100 -27z m1320 -2 c53 -50 45 -124 -19 -178 l-33 -27 31
-38 c54 -69 59 -70 73 -18 11 43 14 46 46 46 l35 0 -5 -44 c-3 -24 -13 -58
-21 -76 -18 -35 -13 -52 22 -84 12 -11 21 -23 21 -28 0 -14 -92 -9 -110 7 -15
14 -21 14 -53 0 -46 -19 -130 -19 -167 0 -48 25 -70 62 -70 118 0 44 4 53 39
89 l40 39 -19 32 c-24 38 -26 97 -6 136 34 64 141 79 196 26z m-2540 -4 c0
-23 -5 -30 -22 -33 -23 -3 -23 -5 -26 -170 l-2 -168 70 0 70 0 0 30 c0 28 3
30 35 30 l35 0 0 -70 0 -70 -177 2 -178 3 -3 26 c-3 22 2 29 28 37 l30 11 -2
168 -3 167 -25 6 c-18 4 -26 14 -28 33 l-3 27 100 0 101 0 0 -29z m1850 -36
l0 -65 -34 0 c-30 0 -35 3 -38 28 -3 24 -7 27 -45 30 l-43 3 0 -169 0 -170 25
-6 c20 -5 25 -13 25 -36 l0 -30 -100 0 -100 0 0 30 c0 23 5 31 25 36 l25 6 0
170 0 169 -42 -3 c-39 -3 -43 -6 -46 -30 -3 -25 -8 -28 -38 -28 l-34 0 0 65 0
65 210 0 210 0 0 -65z m-1640 -806 l0 -70 -32 3 c-28 2 -34 8 -36 31 -3 27 -4
27 -83 27 l-79 0 0 -65 0 -65 85 0 85 0 0 -35 0 -35 -85 0 -86 0 3 -67 c3 -62
5 -68 26 -71 17 -3 22 -10 22 -33 l0 -29 -101 0 -100 0 3 28 c2 19 9 28 26 30
22 3 22 5 22 177 l0 173 -25 6 c-18 5 -25 13 -25 30 0 12 3 26 7 29 3 4 89 7
190 7 l183 0 0 -71z m456 55 c45 -22 98 -84 112 -133 21 -69 15 -161 -14 -219
-89 -179 -333 -153 -394 42 -17 53 -8 161 18 211 39 77 99 114 185 115 35 0
73 -7 93 -16z m472 -16 c-2 -25 -8 -34 -25 -36 -23 -3 -23 -6 -23 -138 0 -180
12 -204 101 -204 29 0 47 7 64 25 24 23 25 29 25 168 l0 145 -25 6 c-20 5 -25
13 -25 36 l0 30 101 0 100 0 -3 -32 c-2 -25 -8 -34 -25 -36 -23 -3 -23 -6 -23
-142 0 -173 -11 -208 -79 -248 -38 -22 -58 -27 -116 -27 -81 0 -126 21 -162
75 -21 30 -23 44 -23 182 0 147 0 149 -24 158 -22 8 -41 52 -28 65 3 3 48 5
99 5 l94 0 -3 -32z m660 -93 c40 -66 84 -138 97 -160 l24 -40 1 127 c0 124 0
127 -22 130 -18 2 -24 11 -26 36 l-3 33 98 -3 98 -3 3 -27 c3 -22 -2 -29 -22
-34 l-26 -6 0 -205 0 -204 -52 3 -52 3 -91 152 c-49 84 -92 153 -95 153 -3 0
-4 -56 -2 -124 3 -120 4 -125 25 -128 16 -2 23 -11 25 -30 l3 -28 -100 0 -101
0 0 29 c0 23 5 30 23 33 22 3 22 5 25 175 l2 172 -22 3 c-18 2 -24 10 -26 36
l-3 33 73 -3 73 -3 73 -120z m698 110 c53 -15 91 -49 119 -104 13 -26 16 -54
13 -135 -3 -91 -6 -107 -30 -143 -45 -68 -90 -83 -246 -83 l-132 0 0 29 c0 23
5 30 23 33 22 3 22 5 25 175 l2 172 -22 3 c-18 2 -24 10 -26 36 l-3 32 114 0
c71 0 132 -6 163 -15z"/>
<path d="M1771 3104 c-38 -32 -55 -90 -48 -165 6 -70 29 -114 69 -135 34 -18
89 -14 115 8 45 37 65 148 43 230 -23 82 -117 115 -179 62z"/>
<path d="M3731 3108 c-10 -28 6 -78 25 -78 20 0 54 37 54 58 0 43 -64 59 -79
20z"/>
<path d="M3707 2900 c-9 -14 -17 -32 -17 -41 0 -26 39 -69 63 -69 29 0 67 11
67 19 0 3 -22 30 -48 60 l-48 55 -17 -24z"/>
<path d="M1841 2317 c-46 -23 -65 -62 -69 -142 -7 -126 29 -185 112 -185 80 0
119 54 120 165 0 86 -22 137 -69 159 -40 19 -62 20 -94 3z"/>
<path d="M3672 2158 l3 -163 52 0 c84 1 123 54 123 165 0 112 -38 160 -127
160 l-53 0 2 -162z"/>
</g>
</svg>
