<?xml version="1.0" standalone="no"?>
<!DOCTYPE svg PUBLIC "-//W3C//DTD SVG 20010904//EN"
 "http://www.w3.org/TR/2001/REC-SVG-20010904/DTD/svg10.dtd">
<svg version="1.0" xmlns="http://www.w3.org/2000/svg"
 width="481.000000pt" height="105.000000pt" viewBox="0 0 481.000000 105.000000"
 preserveAspectRatio="xMidYMid meet">

<g transform="translate(0.000000,105.000000) scale(0.100000,-0.100000)"
fill="#000000" stroke="none">
<path d="M316 778 c-20 -11 -21 -62 -1 -78 20 -17 20 -21 -12 -199 -24 -135
-30 -155 -49 -163 -25 -12 -40 -56 -25 -71 6 -6 99 -12 220 -14 244 -5 221
-17 247 125 13 74 14 95 4 107 -21 25 -50 18 -68 -17 -27 -51 -70 -88 -103
-88 -36 0 -36 -2 -4 169 14 74 25 136 25 137 0 2 14 10 30 19 30 16 42 56 20
70 -16 10 -267 13 -284 3z"/>
<path d="M2045 775 c-49 -17 -75 -48 -75 -86 0 -32 -9 -42 -60 -68 -22 -11
-43 -34 -57 -61 -41 -79 -25 -162 45 -233 104 -106 339 -104 437 4 33 36 36
46 33 83 -3 22 -8 48 -12 57 -5 12 3 20 38 33 106 41 147 178 74 246 -40 37
-121 21 -148 -30 -16 -30 -2 -50 32 -47 17 1 33 -3 35 -10 9 -26 -46 -61 -154
-97 -113 -38 -148 -61 -137 -89 8 -22 36 -29 79 -21 28 5 35 3 35 -10 0 -26
-46 -49 -87 -43 -70 12 -110 82 -83 147 13 31 24 37 35 20 10 -16 71 -12 85 5
11 13 9 20 -14 44 -46 48 -12 94 43 59 15 -9 23 -9 35 1 23 20 19 54 -9 81
-31 29 -112 37 -170 15z"/>
<path d="M2582 778 c-17 -17 -15 -48 5 -70 15 -17 15 -27 -6 -151 -30 -177
-37 -200 -61 -215 -16 -10 -20 -21 -18 -45 l3 -32 137 -3 c135 -3 137 -2 153
21 19 30 13 47 -26 69 -21 12 -29 23 -26 35 3 10 8 35 12 56 8 47 37 48 45 2
4 -24 10 -30 30 -30 20 0 26 7 37 43 6 23 13 68 15 100 3 48 0 57 -16 60 -12
3 -27 -6 -41 -24 -39 -49 -53 -11 -28 79 7 25 102 21 114 -5 5 -10 13 -26 18
-35 4 -10 18 -19 30 -21 26 -4 38 23 47 113 l7 65 -210 0 c-149 0 -212 -3
-221 -12z"/>
<path d="M4505 751 c-45 -7 -57 -31 -30 -61 14 -15 15 -25 6 -58 l-11 -40 -35
11 c-81 24 -179 -49 -210 -158 -22 -73 -13 -119 30 -162 38 -38 82 -43 139
-16 33 15 37 15 54 0 40 -36 130 -10 168 49 17 25 17 27 1 39 -23 17 -22 39
13 210 41 205 43 195 -27 194 -32 -1 -76 -5 -98 -8z m-61 -250 c9 -14 -15
-124 -30 -140 -11 -12 -15 -12 -30 -1 -31 27 2 150 41 150 7 0 16 -4 19 -9z"/>
<path d="M1685 724 c-11 -9 -53 -32 -93 -52 -40 -19 -81 -46 -90 -60 -15 -23
-15 -25 8 -44 l24 -19 -22 -113 c-27 -136 -27 -148 -4 -169 26 -24 115 -22
170 3 61 28 79 90 26 90 -29 0 -31 21 -8 120 14 62 18 69 42 72 18 2 31 12 40
31 18 36 9 57 -23 57 -25 0 -26 1 -19 50 6 45 5 50 -12 50 -11 0 -28 -8 -39
-16z"/>
<path d="M1216 605 c-40 -21 -55 -44 -56 -85 0 -38 15 -66 63 -118 24 -25 28
-35 19 -44 -9 -9 -19 -7 -42 10 -52 39 -74 26 -72 -42 4 -81 -1 -78 137 -74
106 3 128 6 151 24 57 42 46 116 -27 190 -34 34 -40 47 -31 56 9 9 18 6 41
-16 16 -15 37 -26 48 -24 25 5 29 64 6 102 -18 28 -21 29 -113 32 -71 3 -103
0 -124 -11z"/>
<path d="M834 586 c-63 -29 -96 -73 -102 -137 -6 -64 2 -92 40 -135 40 -45 82
-64 143 -64 110 0 205 83 205 179 0 144 -144 223 -286 157z m124 -128 c-7 -75
-25 -120 -47 -116 -13 3 -16 16 -15 63 2 77 17 115 45 115 21 0 21 -4 17 -62z"/>
<path d="M3021 598 c-50 -17 -107 -76 -120 -125 -48 -179 173 -295 325 -170
64 53 80 126 45 203 -29 64 -81 98 -155 101 -33 1 -76 -3 -95 -9z m102 -141
c-2 -66 -20 -110 -47 -115 -17 -4 -18 1 -14 65 6 78 21 116 46 111 14 -3 17
-14 15 -61z"/>
<path d="M3330 590 c-24 -24 -24 -30 -6 -55 11 -15 11 -29 0 -89 -22 -113 -19
-151 14 -176 36 -29 116 -24 158 9 l29 23 20 -26 c24 -30 66 -34 119 -12 53
22 100 96 61 96 -8 0 -15 1 -15 3 0 2 9 54 20 116 11 62 18 116 16 120 -3 4
-45 6 -93 3 -100 -5 -124 -19 -99 -57 11 -16 12 -33 4 -80 -12 -67 -22 -85
-49 -85 -23 0 -25 42 -5 145 8 39 12 73 9 78 -2 4 -40 7 -84 7 -66 0 -82 -3
-99 -20z"/>
<path d="M3796 594 c-19 -19 -20 -28 -4 -54 11 -18 3 -95 -29 -253 l-5 -28 83
3 84 3 11 55 c7 30 15 72 18 92 8 44 30 70 53 61 16 -6 15 -49 -3 -154 -9 -52
15 -73 77 -67 81 8 149 81 105 113 -14 11 -15 21 -4 88 9 59 9 81 -1 105 -23
56 -99 66 -161 22 -33 -23 -44 -25 -37 -6 10 26 -17 36 -94 36 -57 0 -82 -4
-93 -16z"/>
</g>
</svg>
